<svg width="152" height="152" viewBox="0 0 152 152" fill="none" xmlns="http://www.w3.org/2000/svg">
<circle cx="76" cy="76" r="75" fill="white" stroke="#0066FF"/>
<path d="M105.783 77.9643C105.333 73.0393 104.591 72.0802 104.311 71.7194C103.667 70.8858 102.637 70.341 101.547 69.7694C101.485 69.7377 101.432 69.6923 101.392 69.6371C101.351 69.5818 101.324 69.5181 101.313 69.451C101.302 69.3839 101.307 69.3151 101.328 69.2503C101.349 69.1854 101.385 69.1262 101.433 69.0772C101.635 68.8776 101.79 68.6377 101.888 68.3741C101.986 68.1105 102.024 67.8294 102 67.5501C101.953 67.0548 101.716 66.5948 101.338 66.2614C100.959 65.928 100.466 65.7454 99.9556 65.75H98.0053C97.9217 65.7505 97.8383 65.7558 97.7553 65.7658C97.6984 65.7418 97.6394 65.7226 97.579 65.7086C96.4239 63.3283 94.8424 60.0694 91.5644 58.4789C86.7024 56.1219 77.7461 56 75.9959 56C74.2456 56 65.2893 56.1219 60.4336 58.4753C57.1556 60.0657 55.5741 63.3247 54.4189 65.7049L54.4089 65.7244C54.3513 65.7323 54.2947 65.7462 54.2402 65.7658C54.1572 65.7558 54.0737 65.7505 53.9901 65.75H52.0361C51.5259 65.7454 51.0325 65.928 50.6539 66.2614C50.2753 66.5948 50.039 67.0548 49.992 67.5501C49.9698 67.8288 50.0096 68.1088 50.1086 68.3711C50.2077 68.6334 50.3636 68.8717 50.5659 69.0699C50.6142 69.1188 50.6503 69.1781 50.6712 69.243C50.692 69.3078 50.6972 69.3765 50.6861 69.4437C50.6751 69.5108 50.6482 69.5745 50.6076 69.6298C50.567 69.685 50.5137 69.7303 50.4521 69.7621C49.3619 70.3374 48.3268 70.8822 47.6879 71.7121C47.4079 72.0778 46.6678 73.032 46.2165 77.957C45.9664 80.7284 45.9289 83.5974 46.1252 85.445C46.5365 89.2841 47.3079 91.6046 47.3404 91.7008C47.4588 92.0512 47.6766 92.3617 47.9687 92.5962C48.2608 92.8307 48.6152 92.9796 48.9906 93.0256V93.05C48.9906 93.5672 49.2014 94.0632 49.5765 94.4289C49.9516 94.7946 50.4604 95 50.9909 95H57.992C58.5225 95 59.0313 94.7946 59.4064 94.4289C59.7815 94.0632 59.9923 93.5672 59.9923 93.05C61.0687 93.05 61.8175 92.8623 62.6114 92.6624C63.7575 92.3614 64.9291 92.1611 66.1119 92.064C69.9262 91.7094 73.7193 91.5875 75.9959 91.5875C78.2262 91.5875 82.1868 91.7094 86.0073 92.064C87.1948 92.1613 88.371 92.3624 89.5216 92.6649C90.2817 92.855 91.0031 93.0305 92.002 93.0488C92.002 93.566 92.2127 94.0619 92.5878 94.4276C92.963 94.7933 93.4717 94.9988 94.0023 94.9988H101.003C101.534 94.9988 102.043 94.7933 102.418 94.4276C102.793 94.0619 103.004 93.566 103.004 93.0488V93.0342C103.38 92.989 103.735 92.8405 104.028 92.6059C104.321 92.3714 104.54 92.0604 104.659 91.7094C104.691 91.6131 105.463 89.2926 105.874 85.4535C106.07 83.6047 106.035 80.7406 105.783 77.9643ZM58.0345 67.3722C59.0346 65.3003 60.1785 62.9554 62.2151 61.967C65.158 60.5386 71.2577 59.8951 75.9959 59.8951C80.7341 59.8951 86.8337 60.5338 89.7766 61.967C91.8132 62.9554 92.9521 65.3015 93.9572 67.3722L94.0823 67.6366C94.1554 67.7872 94.1877 67.9535 94.1761 68.1197C94.1646 68.2859 94.1095 68.4464 94.0163 68.586C93.923 68.7256 93.7946 68.8395 93.6433 68.917C93.4921 68.9944 93.3229 69.0328 93.1521 69.0284C88.9978 68.9187 80.2465 68.5677 75.9959 68.5677C71.7452 68.5677 62.9939 68.9273 58.8333 69.037C58.6625 69.0413 58.4934 69.0029 58.3421 68.9255C58.1909 68.848 58.0625 68.7341 57.9692 68.5945C57.8759 68.455 57.8209 68.2944 57.8093 68.1282C57.7978 67.962 57.8301 67.7957 57.9032 67.6452C57.947 67.555 57.9932 67.4636 58.0345 67.3722ZM59.5259 77.0771C57.3754 77.3294 55.2111 77.4539 53.045 77.45C51.7198 77.45 50.3533 77.0844 50.0995 75.9339C49.9258 75.16 49.9445 74.7249 50.0383 74.2873C50.117 73.9156 50.2421 73.6451 50.8672 73.55C52.4924 73.3063 53.4013 73.6122 56.0617 74.3763C57.8257 74.8821 59.0984 75.5561 59.8235 76.0899C60.1873 76.3531 59.9935 77.0405 59.5259 77.0771ZM87.2025 87.0708C85.5573 87.2536 82.2668 87.1866 76.0334 87.1866C69.7999 87.1866 66.5107 87.2536 64.8655 87.0708C63.1677 86.8868 61.0036 85.3219 62.4814 83.9277C63.4653 83.0087 65.7606 82.3213 68.8173 81.935C71.874 81.5487 73.1679 81.35 76.0209 81.35C78.8738 81.35 80.0365 81.4719 83.2244 81.9362C86.4124 82.4006 88.8215 83.0965 89.5604 83.9289C90.908 85.4206 88.899 86.877 87.2025 87.0781V87.0708ZM101.892 75.9327C101.642 77.088 100.267 77.4488 98.9467 77.4488C96.7392 77.4493 94.5335 77.3248 92.3408 77.0758C91.9582 77.0405 91.7807 76.386 92.1682 76.0887C92.8821 75.5414 94.1685 74.8809 95.93 74.3751C98.5904 73.6109 100.124 73.305 101.442 73.5598C101.763 73.6219 101.933 73.9583 101.953 74.1691C102.042 74.7562 102.021 75.354 101.892 75.9339V75.9327Z" fill="#0066FF" stroke="#0066FF"/>
</svg>
